<?xml version="1.0" encoding="utf-8"?>
<!-- Generator: Adobe Illustrator 23.1.1, SVG Export Plug-In . SVG Version: 6.00 Build 0)  -->
<svg version="1.1" id="Layer_1" xmlns="http://www.w3.org/2000/svg" xmlns:xlink="http://www.w3.org/1999/xlink" x="0px" y="0px"
	 viewBox="0 0 500 500" style="enable-background:new 0 0 500 500;" xml:space="preserve">
<style type="text/css">
	.st0{fill:#FFFFFF;}
</style>
<g>
	<path class="st0" d="M8.6,97.4c1.8-7.7,4-15.1,9-21.5c9.9-12.6,23-17.7,38.7-17.7c75.8,0.1,151.7,0,227.5,0c53.5,0,107,0,160.5,0
		c11,0,21.2,2.2,30.1,9c12.2,9.4,17.6,22.1,17.6,37.3c0,46.7,0,93.4,0,140.2c0,54.3,0,108.5,0,162.8c0,18.8-7.9,33.3-25.1,41.4
		c-6.2,2.9-13.6,4.5-20.4,4.5c-49.6,0.4-99.1,0.2-148.7,0.2c-0.9,0-1.8-0.1-3.2-0.2c0-14.5,0-28.8,0-43.6c51,0,101.9,0,153.1,0
		c0-102.7,0-204.9,0-307.4c-131.6,0-263,0-395.1,0c0,21.8,0,43.6,0,65.7c-15.1,0-29.6,0-44,0C8.6,144.6,8.6,121,8.6,97.4z"/>
	<path class="st0" d="M8.6,211.7c7.7,0.5,15.3,0.9,23,1.6c100.9,10.1,182.1,77.9,209.8,175.3c5.6,19.7,8.4,40,8.8,60.5
		c0,1.4,0,2.8,0,4.7c-8.5,0-16.7,0-24.8,0c-4.6,0-9.1-0.3-13.7,0.1c-4.3,0.3-5.7-1-5.7-5.4c-0.2-24.2-5-47.5-14.4-69.7
		c-19.1-45.5-50.6-79.7-94.9-102C69,262.8,39.6,256.3,8.6,256C8.6,241.3,8.6,226.5,8.6,211.7z"/>
	<path class="st0" d="M8.6,300.4c21.7-0.7,42.5,3.9,62.2,12.6c36.1,16,62.2,42.3,78.5,78.3c7.8,17.1,14,46.7,12.6,62.1
		c-14.3,0-28.7,0-43.3,0c-0.4-4.8-0.8-9.5-1.3-14.1c-6.2-51.9-48.7-92.3-102.6-95.1c-2-0.1-4.1-0.2-6.1-0.3
		C8.6,329.4,8.6,314.9,8.6,300.4z"/>
	<path class="st0" d="M8.6,388.2c35-1.2,66.1,27.3,65.6,65c-1,0.2-2,0.5-3,0.5c-20.1,0-40.2,0-60.3,0c-0.8,0-1.5-0.3-2.3-0.4
		C8.6,431.6,8.6,409.9,8.6,388.2z"/>
</g>
</svg>
