<?xml version="1.0" encoding="utf-8"?>
<!-- Generator: Adobe Illustrator 24.3.0, SVG Export Plug-In . SVG Version: 6.00 Build 0)  -->
<svg version="1.1" id="Layer_1" xmlns="http://www.w3.org/2000/svg" xmlns:xlink="http://www.w3.org/1999/xlink" x="0px" y="0px"
	 viewBox="0 0 134 38" style="enable-background:new 0 0 134 38;" xml:space="preserve">
<style type="text/css">
	.st0{fill:url(#SVGID_1_);}
	.st1{fill:url(#SVGID_2_);}
	.st2{fill:url(#SVGID_3_);}
	.st3{fill:url(#SVGID_4_);}
	.st4{fill:url(#SVGID_5_);}
	.st5{fill:#9D005E;}
	.st6{fill:url(#SVGID_6_);}
	.st7{fill:url(#SVGID_7_);}
	.st8{fill:url(#SVGID_8_);}
	.st9{fill:none;stroke:#231F20;stroke-width:0.25;stroke-miterlimit:10;}
</style>
<g>
	<g>
		
			<linearGradient id="SVGID_1_" gradientUnits="userSpaceOnUse" x1="61.9591" y1="9.9294" x2="71.0537" y2="37.7408" gradientTransform="matrix(1 0 0 -1 0 37.8898)">
			<stop  offset="0" style="stop-color:#9D005E"/>
			<stop  offset="0.4284" style="stop-color:#D4006C"/>
			<stop  offset="1" style="stop-color:#E6007E"/>
		</linearGradient>
		<path class="st0" d="M65,26.1c-4.3,0-6.9-1.9-8.3-3.5c-2-2.3-2.9-5.6-2.3-8.8l0,0c0.5-3.1,2.1-5.9,4.3-8c2.5-2.3,5.8-3.6,9.3-3.6
			c3.4,0,6.2,1.2,8.2,3.5c2,2.3,2.8,5.5,2.3,8.7c-0.5,3.1-2,5.9-4.2,8C71.8,24.9,68.5,26.1,65,26.1z M67.4,8.8
			c-3.1,0-5.8,2.3-6.3,5.3c-0.3,1.4,0,2.8,0.9,3.8c0.8,1,2.1,1.4,3.5,1.4c3.1,0,5.8-2.3,6.3-5.3c0.3-1.4,0-2.8-0.9-3.8
			C70.2,9.4,68.9,8.8,67.4,8.8z"/>
	</g>
	
		<linearGradient id="SVGID_2_" gradientUnits="userSpaceOnUse" x1="38.8068" y1="34.2741" x2="41.1335" y2="16.5163" gradientTransform="matrix(1 0 0 -1 0 37.8898)">
		<stop  offset="0" style="stop-color:#9D005E"/>
		<stop  offset="0.5194" style="stop-color:#D4006C"/>
		<stop  offset="1" style="stop-color:#E6007E"/>
	</linearGradient>
	<path class="st1" d="M35.9,3.3C36,3.2,36.1,3.1,36.2,3c0.1-0.1,0.3-0.2,0.4-0.3c0.5-0.4,1.1-0.5,1.8-0.5h1.7c0.8,0,1.5,0.6,1.6,1.4
		l3.1,21.7C44,25.8,43.2,26,42.3,26h-0.1c-1.3,0-3.5-1.1-4.1-3.5L35.9,3.3z"/>
	
		<linearGradient id="SVGID_3_" gradientUnits="userSpaceOnUse" x1="30.2636" y1="15.5331" x2="40.8954" y2="37.8188" gradientTransform="matrix(1 0 0 -1 0 37.8898)">
		<stop  offset="0" style="stop-color:#9D005E"/>
		<stop  offset="0.4284" style="stop-color:#D4006C"/>
		<stop  offset="1" style="stop-color:#E6007E"/>
	</linearGradient>
	<path class="st2" d="M41,2.5c0.4,0.2,0.5,0.5,0.6,0.7c0.1,0.2,0.2,0.5,0.2,0.5l0.1,0.8L42.1,6c0,0-0.4-2.5-1.4-0.4
		c-2.6,5.7-3.5,7.7-3.5,7.7l-5,10.4c-0.6,1.4-2.3,2.4-4.1,2.4l0,0c-1.2,0-2.2-0.5-3-1.4L35.2,4.2c0.5-1.3,1.8-2,3.2-2h1.7
		C40.4,2.2,40.6,2.3,41,2.5z"/>
	
		<linearGradient id="SVGID_4_" gradientUnits="userSpaceOnUse" x1="39.0027" y1="7.5674" x2="48.0847" y2="27.0616" gradientTransform="matrix(1 0 0 -1 0 37.8898)">
		<stop  offset="0" style="stop-color:#9D005E"/>
		<stop  offset="0.4284" style="stop-color:#D4006C"/>
		<stop  offset="1" style="stop-color:#E6007E"/>
	</linearGradient>
	<path class="st3" d="M42.3,26c-0.8,0-3.2-0.5-3.9-2.7c-0.1-0.2-0.2-0.6-0.2-0.8c0,0,0.6,1.7,1.8-0.9s7.8-17.5,7.8-17.5
		c0.5-1.2,1.7-2,3.1-2H54c1.1,0,1.8,1.1,1.4,2.1l-8.7,19C45.3,25.9,43.5,26,42.3,26z"/>
	
		<linearGradient id="SVGID_5_" gradientUnits="userSpaceOnUse" x1="28.8477" y1="6.7225" x2="26.3411" y2="29.2236" gradientTransform="matrix(1 0 0 -1 0 37.8898)">
		<stop  offset="0" style="stop-color:#9D005E"/>
		<stop  offset="0.4284" style="stop-color:#D4006C"/>
		<stop  offset="1" style="stop-color:#E6007E"/>
	</linearGradient>
	<path class="st4" d="M28.1,26c-2,0-4-1.3-4.1-3.7L22.2,5.9c-0.2-2,1.4-3.7,3.3-3.7h1.9c0.8,0,1.4,0.6,1.5,1.4c0,0,0.8,9,1.7,19.6
		c0.2,1.7,1.3,1,1.3,1C30.6,26.1,28.5,26,28.1,26z"/>
	<path class="st5" d="M94,3.3c0.1-0.1,0.2-0.2,0.3-0.3c0.1-0.1,0.3-0.2,0.4-0.3c0.5-0.4,1.1-0.5,1.8-0.5h1.7c0.8,0,1.5,0.6,1.6,1.4
		l3.1,21.7c-0.7,0.4-1.5,0.6-2.4,0.6h0c-1.3,0-3.5-1.1-4.1-3.5L94,3.3z"/>
	
		<linearGradient id="SVGID_6_" gradientUnits="userSpaceOnUse" x1="88.3473" y1="15.5452" x2="98.9791" y2="37.8309" gradientTransform="matrix(1 0 0 -1 0 37.8898)">
		<stop  offset="0" style="stop-color:#9D005E"/>
		<stop  offset="0.4284" style="stop-color:#D4006C"/>
		<stop  offset="1" style="stop-color:#E6007E"/>
	</linearGradient>
	<path class="st6" d="M99.1,2.5c0.4,0.2,0.5,0.5,0.6,0.7c0.1,0.2,0.2,0.5,0.2,0.5l0.1,0.8l0.2,1.4c0,0-0.4-2.5-1.4-0.4
		c-2.6,5.7-3.5,7.7-3.5,7.7l-5,10.4c-0.6,1.4-2.3,2.4-4.1,2.4l0,0c-1.2,0-2.2-0.5-3-1.4L93.3,4.2c0.5-1.3,1.8-2,3.2-2h1.7
		C98.5,2.2,98.7,2.3,99.1,2.5z"/>
	
		<linearGradient id="SVGID_7_" gradientUnits="userSpaceOnUse" x1="97.0862" y1="7.5793" x2="106.1683" y2="27.0735" gradientTransform="matrix(1 0 0 -1 0 37.8898)">
		<stop  offset="0" style="stop-color:#9D005E"/>
		<stop  offset="0.4284" style="stop-color:#D4006C"/>
		<stop  offset="1" style="stop-color:#E6007E"/>
	</linearGradient>
	<path class="st7" d="M100.4,26c-0.8,0-3.2-0.5-3.9-2.7c-0.1-0.2-0.2-0.6-0.2-0.8c0,0,0.6,1.7,1.8-0.9C99.3,19,106,4.2,106,4.2
		c0.5-1.2,1.7-2,3.1-2h3.1c1.1,0,1.8,1.1,1.4,2.1l-8.7,19C103.4,25.9,101.6,26,100.4,26z"/>
	
		<linearGradient id="SVGID_8_" gradientUnits="userSpaceOnUse" x1="86.9705" y1="6.724" x2="84.4639" y2="29.2251" gradientTransform="matrix(1 0 0 -1 0 37.8898)">
		<stop  offset="0" style="stop-color:#9D005E"/>
		<stop  offset="0.4284" style="stop-color:#D4006C"/>
		<stop  offset="1" style="stop-color:#E6007E"/>
	</linearGradient>
	<path class="st8" d="M86.2,26c-2,0-4-1.3-4.1-3.7L80.3,5.9c-0.2-2,1.4-3.7,3.3-3.7h2c0.8,0,1.4,0.6,1.5,1.4c0,0,0.8,9,1.7,19.6
		c0.2,1.7,1.3,1,1.3,1C88.7,26.1,86.6,26,86.2,26z"/>
	<circle class="st5" cx="96.6" cy="32.7" r="3.4"/>
	<path class="st9" d="M43.1,13.5"/>
	<path class="st9" d="M37.1,13.5"/>
	<path class="st9" d="M50.7,14.6"/>
	<path class="st9" d="M43.4,14.6"/>
	<path class="st9" d="M30.4,15.2"/>
	<path class="st9" d="M23.1,15.2"/>
	<path class="st5" d="M84.5,29.6"/>
	<g>
		<g>
			<path class="st5" d="M78.5,34c-0.3,0.7-0.7,1.4-1.3,1.7c-0.5,0.3-0.9,0.5-1.4,0.5l0,0c-0.4,0-0.6-0.3-0.6-0.6
				c0-0.4,0.3-0.6,0.6-0.6s0.6-0.1,0.9-0.3s0.5-0.4,0.5-0.6l0,0c-0.3,0.1-0.5,0.1-0.7,0.1c-1.4,0-2.4-1.1-2.4-2.4s1.1-2.4,2.4-2.4
				c1.3,0,2.3,0.9,2.4,2.2C78.8,31.6,79.1,32.4,78.5,34z M76.5,30.5c-0.6,0-1.2,0.5-1.2,1.2c0,0.6,0.5,1.2,1.2,1.2s1.2-0.5,1.2-1.2
				C77.5,31,77.1,30.5,76.5,30.5z"/>
		</g>
		<g>
			<path class="st5" d="M83.7,29.3h-3.2c-0.4,0-0.6,0.3-0.6,0.6s0.3,0.6,0.6,0.6h2.3l-2,4.8c-0.1,0.3,0,0.6,0.4,0.8
				c0.1,0,0.2,0.1,0.3,0.1c0.3,0,0.5-0.2,0.5-0.4l2.4-5.7l0,0v-0.1c0-0.1,0-0.3-0.1-0.5C84.2,29.4,84,29.3,83.7,29.3z"/>
		</g>
		<g>
			<path class="st5" d="M84.8,36.1c-0.5,0-0.8-0.4-0.8-0.8c0-0.5,0.4-0.8,0.8-0.8s0.8,0.4,0.8,0.8C85.6,35.8,85.3,36.1,84.8,36.1z"
				/>
		</g>
		<g>
			<path class="st5" d="M88.7,30v5.5c0,0.4-0.3,0.6-0.6,0.6s-0.6-0.3-0.6-0.6v-4.6l-0.3,0.2c-0.1,0.1-0.2,0.1-0.3,0.1
				c-0.2,0-0.5-0.1-0.5-0.3c-0.1-0.1-0.1-0.3-0.1-0.5c0-0.2,0.2-0.3,0.3-0.4l1.1-0.6c0.4-0.2,0.6-0.2,0.8-0.1
				C88.6,29.5,88.7,29.6,88.7,30z"/>
		</g>
	</g>
</g>
</svg>
