<?xml version="1.0" encoding="utf-8"?>
<!-- Generator: Adobe Illustrator 23.1.1, SVG Export Plug-In . SVG Version: 6.00 Build 0)  -->
<svg version="1.1" id="Layer_1" xmlns="http://www.w3.org/2000/svg" xmlns:xlink="http://www.w3.org/1999/xlink" x="0px" y="0px"
	 viewBox="0 0 134 38" style="enable-background:new 0 0 134 38;" xml:space="preserve">
<style type="text/css">
	.st0{clip-path:url(#SVGID_2_);fill:url(#SVGID_3_);}
	.st1{clip-path:url(#SVGID_5_);fill:url(#SVGID_6_);}
	.st2{clip-path:url(#SVGID_8_);fill:url(#SVGID_9_);}
	.st3{clip-path:url(#SVGID_11_);fill:url(#SVGID_12_);}
	.st4{clip-path:url(#SVGID_14_);fill:url(#SVGID_15_);}
	.st5{clip-path:url(#SVGID_17_);fill:#BBBDBF;}
	.st6{clip-path:url(#SVGID_19_);fill:url(#SVGID_20_);}
	.st7{clip-path:url(#SVGID_22_);fill:url(#SVGID_23_);}
	.st8{clip-path:url(#SVGID_25_);fill:url(#SVGID_26_);}
	.st9{clip-path:url(#SVGID_28_);fill:#BBBDBF;}
	.st10{clip-path:url(#SVGID_28_);fill:#FFFFFF;}
</style>
<title>logo</title>
<g>
	<g>
		<defs>
			<path id="SVGID_1_" d="M63.3,18.1c-0.8-1-1.2-2.4-0.9-3.9c0.6-3.2,3.4-5.5,6.5-5.5c1.5,0,2.8,0.5,3.7,1.5c0.8,1,1.2,2.4,0.9,3.9
				c-0.6,3.2-3.4,5.5-6.5,5.5C65.4,19.6,64.1,19,63.3,18.1 M59.9,5.3c-2.4,2.2-4,5.1-4.5,8.3v0c-0.5,3.4,0.3,6.7,2.4,9.2
				c1.4,1.7,4.1,3.7,8.6,3.7c3.7,0,7.1-1.3,9.7-3.8c2.3-2.2,3.9-5.2,4.4-8.4c0.5-3.4-0.3-6.7-2.4-9.1c-2-2.4-5-3.6-8.5-3.6
				C65.9,1.6,62.5,2.9,59.9,5.3"/>
		</defs>
		<clipPath id="SVGID_2_">
			<use xlink:href="#SVGID_1_"  style="overflow:visible;"/>
		</clipPath>
		
			<linearGradient id="SVGID_3_" gradientUnits="userSpaceOnUse" x1="-2585.0479" y1="3901.9485" x2="-2584.3765" y2="3901.9485" gradientTransform="matrix(12.665 -25.3302 -25.3302 -12.665 131637.5 -16032.9648)">
			<stop  offset="0" style="stop-color:#BBBDBF"/>
			<stop  offset="1" style="stop-color:#FFFFFF"/>
		</linearGradient>
		<polygon class="st0" points="44.9,21.5 60.1,-8.8 90.9,6.6 75.8,37 		"/>
	</g>
	<g>
		<defs>
			<path id="SVGID_4_" d="M38.7,1.7c-0.7,0-1.3,0.1-1.9,0.5c-0.1,0.1-0.3,0.2-0.4,0.3c-0.1,0.1-0.2,0.2-0.3,0.2l2.4,20.1
				c0.6,2.5,2.9,3.7,4.2,3.7h0.1c0.9,0,1.8-0.3,2.5-0.7L42.3,3.2c-0.1-0.9-0.8-1.5-1.7-1.5H38.7z"/>
		</defs>
		<clipPath id="SVGID_5_">
			<use xlink:href="#SVGID_4_"  style="overflow:visible;"/>
		</clipPath>
		
			<linearGradient id="SVGID_6_" gradientUnits="userSpaceOnUse" x1="-2867.0969" y1="4001.9297" x2="-2866.4255" y2="4001.9297" gradientTransform="matrix(3.6054 27.517 27.517 -3.6054 -99744.8906 93325.5703)">
			<stop  offset="0" style="stop-color:#BBBDBF"/>
			<stop  offset="1" style="stop-color:#FFFFFF"/>
		</linearGradient>
		<polygon class="st1" points="45.3,0.5 48.6,26.1 36.4,27.7 33,2.1 		"/>
	</g>
	<g>
		<defs>
			<path id="SVGID_7_" d="M38.7,1.6c-1.4,0-2.7,0.8-3.3,2.1L25,25.1c0.8,0.8,1.9,1.4,3.1,1.4c2,0,3.6-1,4.3-2.5l5.2-10.7
				c0,0,0.9-2.1,3.6-8c1.1-2.3,1.4,0.3,1.4,0.3L42.4,4l-0.1-0.9c0,0-0.1-0.4-0.2-0.5c-0.1-0.2-0.3-0.5-0.6-0.7
				c-0.4-0.2-0.6-0.3-0.9-0.3H38.7z"/>
		</defs>
		<clipPath id="SVGID_8_">
			<use xlink:href="#SVGID_7_"  style="overflow:visible;"/>
		</clipPath>
		
			<linearGradient id="SVGID_9_" gradientUnits="userSpaceOnUse" x1="-2625.3103" y1="3901.0291" x2="-2624.6389" y2="3901.0291" gradientTransform="matrix(16.4748 -34.5332 -34.5332 -16.4748 177996.1406 -26369.4316)">
			<stop  offset="0" style="stop-color:#BBBDBF"/>
			<stop  offset="1" style="stop-color:#FFFFFF"/>
		</linearGradient>
		<polygon class="st2" points="15.3,21.9 28.2,-5.2 52.2,6.2 39.3,33.3 		"/>
	</g>
	<g>
		<defs>
			<path id="SVGID_10_" d="M51.9,1.6c-1.4,0-2.6,0.8-3.2,2.1c0,0-6.9,15.4-8.2,18.1c-1.2,2.7-1.9,1-1.9,1c0,0.2,0.1,0.6,0.2,0.8
				c0.7,2.4,3.2,2.9,4,2.9c1.2,0,3.1-0.2,4.5-2.9l9.1-19.8c0.5-1-0.3-2.2-1.4-2.2H51.9z"/>
		</defs>
		<clipPath id="SVGID_11_">
			<use xlink:href="#SVGID_10_"  style="overflow:visible;"/>
		</clipPath>
		
			<linearGradient id="SVGID_12_" gradientUnits="userSpaceOnUse" x1="-2608.3457" y1="3898.9353" x2="-2607.6743" y2="3898.9353" gradientTransform="matrix(14.0734 -30.2076 -30.2076 -14.0734 154525.7344 -23889.4746)">
			<stop  offset="0" style="stop-color:#BBBDBF"/>
			<stop  offset="1" style="stop-color:#FFFFFF"/>
		</linearGradient>
		<polygon class="st3" points="29.2,22 41.9,-5.4 66.5,6.1 53.7,33.5 		"/>
	</g>
	<g>
		<defs>
			<path id="SVGID_13_" d="M25.4,1.6c-2,0-3.6,1.8-3.4,3.8l1.8,17.2c0.2,2.5,2.2,3.9,4.3,3.9c0.5,0,2.6,0.1,4-2c0,0-1.1,0.7-1.3-1.1
				C29.8,12.4,29,3,29,3c-0.1-0.8-0.7-1.4-1.5-1.4H25.4z"/>
		</defs>
		<clipPath id="SVGID_14_">
			<use xlink:href="#SVGID_13_"  style="overflow:visible;"/>
		</clipPath>
		
			<linearGradient id="SVGID_15_" gradientUnits="userSpaceOnUse" x1="-2637.6604" y1="3835.467" x2="-2636.989" y2="3835.467" gradientTransform="matrix(-3.8841 -34.8671 -34.8671 3.8841 123515.3047 -106833.2266)">
			<stop  offset="0" style="stop-color:#BBBDBF"/>
			<stop  offset="1" style="stop-color:#FFFFFF"/>
		</linearGradient>
		<polygon class="st4" points="21.9,27.7 19,1.9 31.9,0.5 34.8,26.2 		"/>
	</g>
	<g>
		<defs>
			<rect id="SVGID_16_" x="13.8" y="-5.2" width="108.6" height="51.2"/>
		</defs>
		<clipPath id="SVGID_17_">
			<use xlink:href="#SVGID_16_"  style="overflow:visible;"/>
		</clipPath>
		<path class="st5" d="M96.7,2.7c0.1-0.1,0.2-0.2,0.3-0.2c0.1-0.1,0.3-0.2,0.4-0.3c0.6-0.4,1.2-0.5,1.9-0.5h1.8
			c0.9,0,1.6,0.6,1.7,1.5l3.2,22.6c-0.7,0.3-1.6,0.7-2.5,0.7h-0.1c-1.3,0-3.6-1.1-4.2-3.7L96.7,2.7z"/>
	</g>
	<g>
		<defs>
			<path id="SVGID_18_" d="M99.2,1.6c-1.4,0-2.7,0.8-3.3,2.1L85.4,25.1c0.8,0.8,1.9,1.4,3.1,1.4c2,0,3.6-1,4.3-2.5L98,13.2
				c0,0,0.9-2.1,3.6-8c1.1-2.3,1.4,0.3,1.4,0.3L102.8,4l-0.1-0.9c0,0-0.1-0.4-0.2-0.5c-0.1-0.2-0.3-0.5-0.6-0.7
				c-0.4-0.2-0.6-0.3-0.9-0.3H99.2z"/>
		</defs>
		<clipPath id="SVGID_19_">
			<use xlink:href="#SVGID_18_"  style="overflow:visible;"/>
		</clipPath>
		
			<linearGradient id="SVGID_20_" gradientUnits="userSpaceOnUse" x1="-2625.6433" y1="3901.7271" x2="-2624.9719" y2="3901.7271" gradientTransform="matrix(16.4748 -34.5332 -34.5332 -16.4748 178086.1719 -26369.4316)">
			<stop  offset="0" style="stop-color:#BBBDBF"/>
			<stop  offset="1" style="stop-color:#FFFFFF"/>
		</linearGradient>
		<polygon class="st6" points="75.8,21.9 88.7,-5.2 112.7,6.2 99.8,33.3 		"/>
	</g>
	<g>
		<defs>
			<path id="SVGID_21_" d="M112.3,1.6c-1.4,0-2.6,0.8-3.2,2.1c0,0-6.9,15.4-8.2,18.1c-1.2,2.7-1.9,1-1.9,1c0,0.2,0.1,0.6,0.2,0.8
				c0.7,2.4,3.2,2.9,4,2.9c1.2,0,3.1-0.2,4.6-2.9L117,3.8c0.5-1-0.3-2.2-1.4-2.2H112.3z"/>
		</defs>
		<clipPath id="SVGID_22_">
			<use xlink:href="#SVGID_21_"  style="overflow:visible;"/>
		</clipPath>
		
			<linearGradient id="SVGID_23_" gradientUnits="userSpaceOnUse" x1="-2608.7207" y1="3899.7402" x2="-2608.0493" y2="3899.7402" gradientTransform="matrix(14.0734 -30.2076 -30.2076 -14.0734 154615.7656 -23889.4746)">
			<stop  offset="0" style="stop-color:#BBBDBF"/>
			<stop  offset="1" style="stop-color:#FFFFFF"/>
		</linearGradient>
		<polygon class="st7" points="89.6,22 102.4,-5.4 126.9,6.1 114.2,33.5 		"/>
	</g>
	<g>
		<defs>
			<path id="SVGID_24_" d="M85.8,1.6c-2,0-3.6,1.8-3.4,3.8l1.8,17.2c0.2,2.5,2.2,3.9,4.3,3.9c0.5,0,2.6,0.1,4-2c0,0-1.1,0.7-1.3-1.1
				c-1-11-1.8-20.4-1.8-20.4c-0.1-0.8-0.7-1.4-1.5-1.4H85.8z"/>
		</defs>
		<clipPath id="SVGID_25_">
			<use xlink:href="#SVGID_24_"  style="overflow:visible;"/>
		</clipPath>
		
			<linearGradient id="SVGID_26_" gradientUnits="userSpaceOnUse" x1="-2637.5669" y1="3836.3052" x2="-2636.8955" y2="3836.3052" gradientTransform="matrix(-3.8841 -34.8671 -34.8671 3.8841 123605.3438 -106833.2266)">
			<stop  offset="0" style="stop-color:#BBBDBF"/>
			<stop  offset="1" style="stop-color:#FFFFFF"/>
		</linearGradient>
		<polygon class="st8" points="82.3,27.7 79.4,1.9 92.4,0.5 95.3,26.2 		"/>
	</g>
	<g>
		<defs>
			<rect id="SVGID_27_" x="13.8" y="-5.2" width="108.6" height="51.2"/>
		</defs>
		<clipPath id="SVGID_28_">
			<use xlink:href="#SVGID_27_"  style="overflow:visible;"/>
		</clipPath>
		<path class="st9" d="M102.9,33.5c-0.1,2-1.8,3.5-3.7,3.4c-2-0.1-3.5-1.8-3.4-3.7c0.1-2,1.8-3.5,3.7-3.4
			C101.5,29.9,103,31.5,102.9,33.5"/>
		<path class="st10" d="M80.5,34.7c-0.3,0.8-0.7,1.4-1.3,1.7c-0.4,0.3-1,0.5-1.5,0.5c0,0,0,0,0,0c-0.3,0-0.6-0.3-0.6-0.6
			c0-0.3,0.3-0.6,0.6-0.7c0.3,0,0.6-0.1,0.9-0.3c0.2-0.2,0.4-0.4,0.6-0.7c0,0,0,0,0,0c-0.2,0.1-0.5,0.1-0.8,0.1
			c-1.4,0-2.5-1.1-2.5-2.5c0-1.4,1.1-2.5,2.5-2.5c1.3,0,2.3,0.9,2.5,2.2C80.8,32.3,81.1,33.1,80.5,34.7 M78.3,31.1
			c-0.7,0-1.2,0.5-1.2,1.2c0,0.7,0.5,1.2,1.2,1.2c0.7,0,1.2-0.5,1.2-1.2C79.5,31.6,79,31.1,78.3,31.1"/>
		<path class="st10" d="M86,29.8h-3.4c-0.4,0-0.6,0.3-0.6,0.6c0,0.4,0.3,0.6,0.6,0.6H85l-2.1,5c-0.1,0.3,0,0.7,0.3,0.8
			c0.1,0,0.2,0,0.2,0c0.3,0,0.5-0.1,0.6-0.4l2.5-5.9l0,0c0,0,0-0.1,0-0.1c0-0.1,0-0.3-0.1-0.5C86.4,29.9,86.3,29.8,86,29.8"/>
		<path class="st10" d="M87.1,36.9c-0.5,0-0.8-0.4-0.8-0.8c0-0.5,0.4-0.8,0.8-0.8c0.5,0,0.8,0.4,0.8,0.8
			C87.9,36.6,87.5,36.9,87.1,36.9"/>
		<path class="st10" d="M91.1,30.5v5.7c0,0.4-0.3,0.6-0.6,0.6c-0.4,0-0.6-0.3-0.6-0.6v-4.7l-0.3,0.1c-0.1,0.1-0.2,0.1-0.3,0.1
			c-0.2,0-0.4-0.1-0.5-0.3c-0.1-0.1-0.1-0.3-0.1-0.5c0-0.2,0.1-0.3,0.3-0.4l1.1-0.6c0.4-0.2,0.7-0.2,0.9-0.1
			C91,30,91.1,30.2,91.1,30.5"/>
	</g>
</g>
</svg>
