<?xml version="1.0" encoding="utf-8"?>
<!-- Generator: Adobe Illustrator 23.1.1, SVG Export Plug-In . SVG Version: 6.00 Build 0)  -->
<svg version="1.1" id="Layer_1" xmlns="http://www.w3.org/2000/svg" xmlns:xlink="http://www.w3.org/1999/xlink" x="0px" y="0px"
	 viewBox="0 0 500 500" style="enable-background:new 0 0 500 500;" xml:space="preserve">
<style type="text/css">
	.st0{fill:#FFFFFF;}
</style>
<g>
	<path class="st0" d="M2.9,250.55c0-136.21,111-247.03,247.13-246.74C386.97,4.1,496.96,114.55,496.88,251.69
		c-0.07,135.42-111.25,246.06-247.17,245.98C113.4,497.58,2.89,386.94,2.9,250.55z M460.81,250.58
		C460.77,134.19,366.77,40.2,250.04,39.86C133.87,39.52,39,134.07,38.96,250.24c-0.04,117,94.31,211.52,210.94,211.34
		C366.69,461.39,460.84,367.2,460.81,250.58z"/>
	<path class="st0" d="M364.37,250.71c-60.35,36.2-120.12,72.05-180.37,108.2c0-72.26,0-144.03,0-216.39
		C244.08,178.56,303.92,214.45,364.37,250.71z"/>
</g>
</svg>
